<?xml version="1.0" encoding="UTF-8" standalone="no"?>
<!DOCTYPE svg PUBLIC "-//W3C//DTD SVG 1.1//EN"
 "http://www.w3.org/Graphics/SVG/1.1/DTD/svg11.dtd">
<!-- Generated by graphviz version 14.1.5 (20260411.2331)
 -->
<!-- Title: ingest_interpretation_pipeline Pages: 1 -->
<svg width="1917pt" height="226pt"
 viewBox="0.00 0.00 1917.00 226.00" xmlns="http://www.w3.org/2000/svg" xmlns:xlink="http://www.w3.org/1999/xlink">
<g id="graph0" class="graph" transform="scale(1 1) rotate(0) translate(4 222)">
<title>ingest_interpretation_pipeline</title>
<polygon fill="white" stroke="none" points="-4,4 -4,-222 1913,-222 1913,4 -4,4"/>
<text xml:space="preserve" text-anchor="middle" x="954.5" y="-195" font-family="Helvetica,sans-Serif" font-size="20.00">Spank Raw Ingest, Interpretation, and Search&#45;Index Pipeline</text>
<g id="clust1" class="cluster">
<title>cluster_inputs</title>
<path fill="#eef4ff" stroke="#b7c7e8" d="M20,-46C20,-46 131.5,-46 131.5,-46 137.5,-46 143.5,-52 143.5,-58 143.5,-58 143.5,-169 143.5,-169 143.5,-175 137.5,-181 131.5,-181 131.5,-181 20,-181 20,-181 14,-181 8,-175 8,-169 8,-169 8,-58 8,-58 8,-52 14,-46 20,-46"/>
<text xml:space="preserve" text-anchor="middle" x="75.75" y="-158" font-family="Helvetica,sans-Serif" font-size="20.00">Inputs</text>
</g>
<g id="clust2" class="cluster">
<title>cluster_raw</title>
<path fill="#effaf1" stroke="#b9e2c1" d="M513.5,-74C513.5,-74 956,-74 956,-74 962,-74 968,-80 968,-86 968,-86 968,-143 968,-143 968,-149 962,-155 956,-155 956,-155 513.5,-155 513.5,-155 507.5,-155 501.5,-149 501.5,-143 501.5,-143 501.5,-86 501.5,-86 501.5,-80 507.5,-74 513.5,-74"/>
<text xml:space="preserve" text-anchor="middle" x="734.75" y="-132" font-family="Helvetica,sans-Serif" font-size="20.00">Raw Durable Layer</text>
</g>
<g id="clust3" class="cluster">
<title>cluster_workers</title>
<path fill="#fff1f1" stroke="#efc0c0" d="M1035.25,-31C1035.25,-31 1523.5,-31 1523.5,-31 1529.5,-31 1535.5,-37 1535.5,-43 1535.5,-43 1535.5,-154 1535.5,-154 1535.5,-160 1529.5,-166 1523.5,-166 1523.5,-166 1035.25,-166 1035.25,-166 1029.25,-166 1023.25,-160 1023.25,-154 1023.25,-154 1023.25,-43 1023.25,-43 1023.25,-37 1029.25,-31 1035.25,-31"/>
<text xml:space="preserve" text-anchor="middle" x="1279.38" y="-143" font-family="Helvetica,sans-Serif" font-size="20.00">Interpretation / Index Workers</text>
</g>
<g id="clust4" class="cluster">
<title>cluster_search</title>
<path fill="#f7f1ff" stroke="#d4c4ef" d="M1568.5,-31C1568.5,-31 1889,-31 1889,-31 1895,-31 1901,-37 1901,-43 1901,-43 1901,-154 1901,-154 1901,-160 1895,-166 1889,-166 1889,-166 1568.5,-166 1568.5,-166 1562.5,-166 1556.5,-160 1556.5,-154 1556.5,-154 1556.5,-43 1556.5,-43 1556.5,-37 1562.5,-31 1568.5,-31"/>
<text xml:space="preserve" text-anchor="middle" x="1728.75" y="-143" font-family="Helvetica,sans-Serif" font-size="20.00">Search&#45;Visible Layer</text>
</g>
<!-- file_tail -->
<g id="node1" class="node">
<title>file_tail</title>
<path fill="#f7f7f7" stroke="#444444" d="M123.5,-144C123.5,-144 28,-144 28,-144 22,-144 16,-138 16,-132 16,-132 16,-120 16,-120 16,-114 22,-108 28,-108 28,-108 123.5,-108 123.5,-108 129.5,-108 135.5,-114 135.5,-120 135.5,-120 135.5,-132 135.5,-132 135.5,-138 129.5,-144 123.5,-144"/>
<text xml:space="preserve" text-anchor="middle" x="75.75" y="-127.35" font-family="Helvetica,sans-Serif" font-size="12.00">File tail</text>
<text xml:space="preserve" text-anchor="middle" x="75.75" y="-114.6" font-family="Helvetica,sans-Serif" font-size="12.00">syslog/auth/apache</text>
</g>
<!-- breaker -->
<g id="node3" class="node">
<title>breaker</title>
<path fill="#f7f7f7" stroke="#444444" d="M286.75,-118C286.75,-118 184.5,-118 184.5,-118 178.5,-118 172.5,-112 172.5,-106 172.5,-106 172.5,-94 172.5,-94 172.5,-88 178.5,-82 184.5,-82 184.5,-82 286.75,-82 286.75,-82 292.75,-82 298.75,-88 298.75,-94 298.75,-94 298.75,-106 298.75,-106 298.75,-112 292.75,-118 286.75,-118"/>
<text xml:space="preserve" text-anchor="middle" x="235.62" y="-101.35" font-family="Helvetica,sans-Serif" font-size="12.00">Event breaker</text>
<text xml:space="preserve" text-anchor="middle" x="235.62" y="-88.6" font-family="Helvetica,sans-Serif" font-size="12.00">line/multiline/framing</text>
</g>
<!-- file_tail&#45;&gt;breaker -->
<g id="edge1" class="edge">
<title>file_tail&#45;&gt;breaker</title>
<path fill="none" stroke="#444444" d="M135.99,-116.24C144.11,-114.91 152.52,-113.52 160.86,-112.15"/>
<polygon fill="#444444" stroke="#444444" points="161.36,-115.61 170.66,-110.53 160.23,-108.71 161.36,-115.61"/>
</g>
<!-- hec -->
<g id="node2" class="node">
<title>hec</title>
<path fill="#f7f7f7" stroke="#444444" d="M101,-90C101,-90 50.5,-90 50.5,-90 44.5,-90 38.5,-84 38.5,-78 38.5,-78 38.5,-66 38.5,-66 38.5,-60 44.5,-54 50.5,-54 50.5,-54 101,-54 101,-54 107,-54 113,-60 113,-66 113,-66 113,-78 113,-78 113,-84 107,-90 101,-90"/>
<text xml:space="preserve" text-anchor="middle" x="75.75" y="-73.35" font-family="Helvetica,sans-Serif" font-size="12.00">HEC batch</text>
<text xml:space="preserve" text-anchor="middle" x="75.75" y="-60.6" font-family="Helvetica,sans-Serif" font-size="12.00">JSON/raw</text>
</g>
<!-- hec&#45;&gt;breaker -->
<g id="edge2" class="edge">
<title>hec&#45;&gt;breaker</title>
<path fill="none" stroke="#444444" d="M113.37,-78.49C127.71,-81.04 144.71,-84.05 161.36,-87.01"/>
<polygon fill="#444444" stroke="#444444" points="160.28,-90.37 170.74,-88.67 161.5,-83.48 160.28,-90.37"/>
</g>
<!-- staging -->
<g id="node4" class="node">
<title>staging</title>
<path fill="#fff7df" stroke="#444444" d="M460.5,-118C460.5,-118 347.75,-118 347.75,-118 341.75,-118 335.75,-112 335.75,-106 335.75,-106 335.75,-94 335.75,-94 335.75,-88 341.75,-82 347.75,-82 347.75,-82 460.5,-82 460.5,-82 466.5,-82 472.5,-88 472.5,-94 472.5,-94 472.5,-106 472.5,-106 472.5,-112 466.5,-118 460.5,-118"/>
<text xml:space="preserve" text-anchor="middle" x="404.12" y="-101.35" font-family="Helvetica,sans-Serif" font-size="12.00">Bounded staging</text>
<text xml:space="preserve" text-anchor="middle" x="404.12" y="-88.6" font-family="Helvetica,sans-Serif" font-size="12.00">bytes/events/age limits</text>
</g>
<!-- breaker&#45;&gt;staging -->
<g id="edge3" class="edge">
<title>breaker&#45;&gt;staging</title>
<path fill="none" stroke="#444444" d="M299.1,-100C307.22,-100 315.62,-100 323.97,-100"/>
<polygon fill="#444444" stroke="#444444" points="323.77,-103.5 333.77,-100 323.77,-96.5 323.77,-103.5"/>
</g>
<!-- raw_chunks -->
<g id="node5" class="node">
<title>raw_chunks</title>
<path fill="#f7f7f7" stroke="#444444" d="M605.75,-118C605.75,-118 521.5,-118 521.5,-118 515.5,-118 509.5,-112 509.5,-106 509.5,-106 509.5,-94 509.5,-94 509.5,-88 515.5,-82 521.5,-82 521.5,-82 605.75,-82 605.75,-82 611.75,-82 617.75,-88 617.75,-94 617.75,-94 617.75,-106 617.75,-106 617.75,-112 611.75,-118 605.75,-118"/>
<text xml:space="preserve" text-anchor="middle" x="563.62" y="-101.35" font-family="Helvetica,sans-Serif" font-size="12.00">Raw chunk writer</text>
<text xml:space="preserve" text-anchor="middle" x="563.62" y="-88.6" font-family="Helvetica,sans-Serif" font-size="12.00">codec + crc32c</text>
</g>
<!-- staging&#45;&gt;raw_chunks -->
<g id="edge4" class="edge">
<title>staging&#45;&gt;raw_chunks</title>
<path fill="none" stroke="#444444" d="M472.83,-100C481.11,-100 489.55,-100 497.78,-100"/>
<polygon fill="#444444" stroke="#444444" points="497.72,-103.5 507.72,-100 497.72,-96.5 497.72,-103.5"/>
</g>
<!-- raw_manifest -->
<g id="node6" class="node">
<title>raw_manifest</title>
<path fill="#f7f7f7" stroke="#444444" d="M781,-118C781,-118 666.75,-118 666.75,-118 660.75,-118 654.75,-112 654.75,-106 654.75,-106 654.75,-94 654.75,-94 654.75,-88 660.75,-82 666.75,-82 666.75,-82 781,-82 781,-82 787,-82 793,-88 793,-94 793,-94 793,-106 793,-106 793,-112 787,-118 781,-118"/>
<text xml:space="preserve" text-anchor="middle" x="723.88" y="-101.35" font-family="Helvetica,sans-Serif" font-size="12.00">Raw manifest commit</text>
<text xml:space="preserve" text-anchor="middle" x="723.88" y="-88.6" font-family="Helvetica,sans-Serif" font-size="12.00">raw&#45;durable watermark</text>
</g>
<!-- raw_chunks&#45;&gt;raw_manifest -->
<g id="edge5" class="edge">
<title>raw_chunks&#45;&gt;raw_manifest</title>
<path fill="none" stroke="#444444" d="M618.2,-100C626.22,-100 634.62,-100 643.04,-100"/>
<polygon fill="#444444" stroke="#444444" points="642.97,-103.5 652.97,-100 642.97,-96.5 642.97,-103.5"/>
</g>
<!-- raw_events -->
<g id="node7" class="node">
<title>raw_events</title>
<path fill="#f7f7f7" stroke="#444444" d="M948,-118C948,-118 842,-118 842,-118 836,-118 830,-112 830,-106 830,-106 830,-94 830,-94 830,-88 836,-82 842,-82 842,-82 948,-82 948,-82 954,-82 960,-88 960,-94 960,-94 960,-106 960,-106 960,-112 954,-118 948,-118"/>
<text xml:space="preserve" text-anchor="middle" x="895" y="-101.35" font-family="Helvetica,sans-Serif" font-size="12.00">raw_events metadata</text>
<text xml:space="preserve" text-anchor="middle" x="895" y="-88.6" font-family="Helvetica,sans-Serif" font-size="12.00">offset + length + ids</text>
</g>
<!-- raw_manifest&#45;&gt;raw_events -->
<g id="edge6" class="edge">
<title>raw_manifest&#45;&gt;raw_events</title>
<path fill="none" stroke="#444444" d="M793.18,-100C801.43,-100 809.91,-100 818.26,-100"/>
<polygon fill="#444444" stroke="#444444" points="818.04,-103.5 828.04,-100 818.04,-96.5 818.04,-103.5"/>
</g>
<!-- interp_queue -->
<g id="node8" class="node">
<title>interp_queue</title>
<path fill="#fff7df" stroke="#444444" d="M944.25,-64C944.25,-64 845.75,-64 845.75,-64 839.75,-64 833.75,-58 833.75,-52 833.75,-52 833.75,-40 833.75,-40 833.75,-34 839.75,-28 845.75,-28 845.75,-28 944.25,-28 944.25,-28 950.25,-28 956.25,-34 956.25,-40 956.25,-40 956.25,-52 956.25,-52 956.25,-58 950.25,-64 944.25,-64"/>
<text xml:space="preserve" text-anchor="middle" x="895" y="-47.35" font-family="Helvetica,sans-Serif" font-size="12.00">Interpretation queue</text>
<text xml:space="preserve" text-anchor="middle" x="895" y="-34.6" font-family="Helvetica,sans-Serif" font-size="12.00">lag tracked</text>
</g>
<!-- raw_manifest&#45;&gt;interp_queue -->
<g id="edge7" class="edge">
<title>raw_manifest&#45;&gt;interp_queue</title>
<path fill="none" stroke="#444444" d="M782.61,-81.57C796.41,-77.16 811.27,-72.41 825.51,-67.87"/>
<polygon fill="#444444" stroke="#444444" points="826.34,-71.28 834.8,-64.9 824.21,-64.61 826.34,-71.28"/>
</g>
<!-- search_manifest -->
<g id="node15" class="node">
<title>search_manifest</title>
<path fill="#f7f7f7" stroke="#444444" d="M1881,-75C1881,-75 1756.25,-75 1756.25,-75 1750.25,-75 1744.25,-69 1744.25,-63 1744.25,-63 1744.25,-51 1744.25,-51 1744.25,-45 1750.25,-39 1756.25,-39 1756.25,-39 1881,-39 1881,-39 1887,-39 1893,-45 1893,-51 1893,-51 1893,-63 1893,-63 1893,-69 1887,-75 1881,-75"/>
<text xml:space="preserve" text-anchor="middle" x="1818.62" y="-58.35" font-family="Helvetica,sans-Serif" font-size="12.00">Search manifest publish</text>
<text xml:space="preserve" text-anchor="middle" x="1818.62" y="-45.6" font-family="Helvetica,sans-Serif" font-size="12.00">search&#45;visible watermark</text>
</g>
<!-- raw_manifest&#45;&gt;search_manifest -->
<g id="edge19" class="edge">
<title>raw_manifest&#45;&gt;search_manifest</title>
<path fill="none" stroke="#777777" stroke-dasharray="5,2" d="M741.66,-81.66C770.02,-52.79 830.55,0 894,0 894,0 894,0 1636.88,0 1684.49,0 1736.03,-18.21 1771.85,-34.05"/>
<polygon fill="#777777" stroke="#777777" points="1770.04,-37.08 1780.59,-38.03 1772.94,-30.7 1770.04,-37.08"/>
<text xml:space="preserve" text-anchor="middle" x="1283.5" y="-13" font-family="Helvetica,sans-Serif" font-size="10.00">two watermarks:</text>
<text xml:space="preserve" text-anchor="middle" x="1283.5" y="-1.75" font-family="Helvetica,sans-Serif" font-size="10.00">raw&#45;durable vs search&#45;visible</text>
</g>
<!-- parsers -->
<g id="node9" class="node">
<title>parsers</title>
<path fill="#f7f7f7" stroke="#444444" d="M1164.25,-101C1164.25,-101 1043.25,-101 1043.25,-101 1037.25,-101 1031.25,-95 1031.25,-89 1031.25,-89 1031.25,-77 1031.25,-77 1031.25,-71 1037.25,-65 1043.25,-65 1043.25,-65 1164.25,-65 1164.25,-65 1170.25,-65 1176.25,-71 1176.25,-77 1176.25,-77 1176.25,-89 1176.25,-89 1176.25,-95 1170.25,-101 1164.25,-101"/>
<text xml:space="preserve" text-anchor="middle" x="1103.75" y="-84.35" font-family="Helvetica,sans-Serif" font-size="12.00">Parser/analyzer workers</text>
<text xml:space="preserve" text-anchor="middle" x="1103.75" y="-71.6" font-family="Helvetica,sans-Serif" font-size="12.00">sourcetype + version</text>
</g>
<!-- raw_events&#45;&gt;parsers -->
<g id="edge9" class="edge">
<title>raw_events&#45;&gt;parsers</title>
<path fill="none" stroke="#444444" d="M960.28,-94.71C979.01,-93.17 999.75,-91.47 1019.47,-89.85"/>
<polygon fill="#444444" stroke="#444444" points="1019.75,-93.34 1029.43,-89.03 1019.18,-86.36 1019.75,-93.34"/>
<text xml:space="preserve" text-anchor="middle" x="995.62" y="-94.77" font-family="Helvetica,sans-Serif" font-size="10.00">raw refs</text>
</g>
<!-- interp_queue&#45;&gt;parsers -->
<g id="edge8" class="edge">
<title>interp_queue&#45;&gt;parsers</title>
<path fill="none" stroke="#444444" d="M956.63,-56.85C976.33,-60.38 998.54,-64.35 1019.58,-68.12"/>
<polygon fill="#444444" stroke="#444444" points="1018.84,-71.54 1029.3,-69.86 1020.08,-64.65 1018.84,-71.54"/>
</g>
<!-- columns -->
<g id="node10" class="node">
<title>columns</title>
<path fill="#f7f7f7" stroke="#444444" d="M1515.5,-129C1515.5,-129 1402.75,-129 1402.75,-129 1396.75,-129 1390.75,-123 1390.75,-117 1390.75,-117 1390.75,-105 1390.75,-105 1390.75,-99 1396.75,-93 1402.75,-93 1402.75,-93 1515.5,-93 1515.5,-93 1521.5,-93 1527.5,-99 1527.5,-105 1527.5,-105 1527.5,-117 1527.5,-117 1527.5,-123 1521.5,-129 1515.5,-129"/>
<text xml:space="preserve" text-anchor="middle" x="1459.12" y="-112.35" font-family="Helvetica,sans-Serif" font-size="12.00">Typed column builders</text>
<text xml:space="preserve" text-anchor="middle" x="1459.12" y="-99.6" font-family="Helvetica,sans-Serif" font-size="12.00">ip/u16/i64/dicts</text>
</g>
<!-- parsers&#45;&gt;columns -->
<g id="edge10" class="edge">
<title>parsers&#45;&gt;columns</title>
<path fill="none" stroke="#444444" d="M1168.24,-101.5C1182.9,-105.01 1198.51,-108.16 1213.25,-110 1268.32,-116.86 1330.9,-116.99 1379.01,-115.46"/>
<polygon fill="#444444" stroke="#444444" points="1378.9,-118.97 1388.77,-115.12 1378.66,-111.97 1378.9,-118.97"/>
</g>
<!-- tokens -->
<g id="node11" class="node">
<title>tokens</title>
<path fill="#f7f7f7" stroke="#444444" d="M1515.12,-75C1515.12,-75 1403.12,-75 1403.12,-75 1397.12,-75 1391.12,-69 1391.12,-63 1391.12,-63 1391.12,-51 1391.12,-51 1391.12,-45 1397.12,-39 1403.12,-39 1403.12,-39 1515.12,-39 1515.12,-39 1521.12,-39 1527.12,-45 1527.12,-51 1527.12,-51 1527.12,-63 1527.12,-63 1527.12,-69 1521.12,-75 1515.12,-75"/>
<text xml:space="preserve" text-anchor="middle" x="1459.12" y="-58.35" font-family="Helvetica,sans-Serif" font-size="12.00">Token/posting builders</text>
<text xml:space="preserve" text-anchor="middle" x="1459.12" y="-45.6" font-family="Helvetica,sans-Serif" font-size="12.00">field&#45;aware positions</text>
</g>
<!-- parsers&#45;&gt;tokens -->
<g id="edge11" class="edge">
<title>parsers&#45;&gt;tokens</title>
<path fill="none" stroke="#444444" d="M1167.95,-64.53C1182.69,-60.99 1198.41,-57.82 1213.25,-56 1268.53,-49.23 1331.35,-49.65 1379.53,-51.67"/>
<polygon fill="#444444" stroke="#444444" points="1379.16,-55.16 1389.31,-52.12 1379.48,-48.17 1379.16,-55.16"/>
</g>
<!-- enrich -->
<g id="node12" class="node">
<title>enrich</title>
<path fill="#f7f7f7" stroke="#444444" d="M1341.75,-101C1341.75,-101 1225.25,-101 1225.25,-101 1219.25,-101 1213.25,-95 1213.25,-89 1213.25,-89 1213.25,-77 1213.25,-77 1213.25,-71 1219.25,-65 1225.25,-65 1225.25,-65 1341.75,-65 1341.75,-65 1347.75,-65 1353.75,-71 1353.75,-77 1353.75,-77 1353.75,-89 1353.75,-89 1353.75,-95 1347.75,-101 1341.75,-101"/>
<text xml:space="preserve" text-anchor="middle" x="1283.5" y="-84.35" font-family="Helvetica,sans-Serif" font-size="12.00">Optional enrichment</text>
<text xml:space="preserve" text-anchor="middle" x="1283.5" y="-71.6" font-family="Helvetica,sans-Serif" font-size="12.00">url decode/geoip/sigma</text>
</g>
<!-- parsers&#45;&gt;enrich -->
<g id="edge12" class="edge">
<title>parsers&#45;&gt;enrich</title>
<path fill="none" stroke="#444444" d="M1176.54,-83C1184.75,-83 1193.17,-83 1201.49,-83"/>
<polygon fill="#444444" stroke="#444444" points="1201.24,-86.5 1211.24,-83 1201.24,-79.5 1201.24,-86.5"/>
</g>
<!-- segments -->
<g id="node13" class="node">
<title>segments</title>
<path fill="#f7f7f7" stroke="#444444" d="M1683.25,-75C1683.25,-75 1588.5,-75 1588.5,-75 1582.5,-75 1576.5,-69 1576.5,-63 1576.5,-63 1576.5,-51 1576.5,-51 1576.5,-45 1582.5,-39 1588.5,-39 1588.5,-39 1683.25,-39 1683.25,-39 1689.25,-39 1695.25,-45 1695.25,-51 1695.25,-51 1695.25,-63 1695.25,-63 1695.25,-69 1689.25,-75 1683.25,-75"/>
<text xml:space="preserve" text-anchor="middle" x="1635.88" y="-58.35" font-family="Helvetica,sans-Serif" font-size="12.00">Per&#45;field segments</text>
<text xml:space="preserve" text-anchor="middle" x="1635.88" y="-45.6" font-family="Helvetica,sans-Serif" font-size="12.00">columns + postings</text>
</g>
<!-- columns&#45;&gt;segments -->
<g id="edge15" class="edge">
<title>columns&#45;&gt;segments</title>
<path fill="none" stroke="#444444" d="M1519.78,-92.57C1534.41,-88.04 1550.21,-83.16 1565.28,-78.51"/>
<polygon fill="#444444" stroke="#444444" points="1566.12,-81.91 1574.64,-75.61 1564.05,-75.22 1566.12,-81.91"/>
</g>
<!-- tokens&#45;&gt;segments -->
<g id="edge16" class="edge">
<title>tokens&#45;&gt;segments</title>
<path fill="none" stroke="#444444" d="M1527.44,-57C1539.73,-57 1552.58,-57 1564.95,-57"/>
<polygon fill="#444444" stroke="#444444" points="1564.63,-60.5 1574.63,-57 1564.63,-53.5 1564.63,-60.5"/>
</g>
<!-- enrich&#45;&gt;columns -->
<g id="edge13" class="edge">
<title>enrich&#45;&gt;columns</title>
<path fill="none" stroke="#444444" d="M1354.12,-94.23C1362.36,-95.56 1370.81,-96.92 1379.16,-98.27"/>
<polygon fill="#444444" stroke="#444444" points="1378.54,-101.71 1388.97,-99.85 1379.66,-94.8 1378.54,-101.71"/>
</g>
<!-- enrich&#45;&gt;tokens -->
<g id="edge14" class="edge">
<title>enrich&#45;&gt;tokens</title>
<path fill="none" stroke="#444444" d="M1354.12,-72.57C1362.52,-71.32 1371.14,-70.03 1379.65,-68.75"/>
<polygon fill="#444444" stroke="#444444" points="1379.88,-72.26 1389.25,-67.31 1378.84,-65.33 1379.88,-72.26"/>
</g>
<!-- segments&#45;&gt;search_manifest -->
<g id="edge17" class="edge">
<title>segments&#45;&gt;search_manifest</title>
<path fill="none" stroke="#444444" d="M1695.56,-57C1707.4,-57 1720.07,-57 1732.6,-57"/>
<polygon fill="#444444" stroke="#444444" points="1732.53,-60.5 1742.53,-57 1732.53,-53.5 1732.53,-60.5"/>
</g>
<!-- capabilities -->
<g id="node14" class="node">
<title>capabilities</title>
<path fill="#f7f7f7" stroke="#444444" d="M1695.25,-129C1695.25,-129 1576.5,-129 1576.5,-129 1570.5,-129 1564.5,-123 1564.5,-117 1564.5,-117 1564.5,-105 1564.5,-105 1564.5,-99 1570.5,-93 1576.5,-93 1576.5,-93 1695.25,-93 1695.25,-93 1701.25,-93 1707.25,-99 1707.25,-105 1707.25,-105 1707.25,-117 1707.25,-117 1707.25,-123 1701.25,-129 1695.25,-129"/>
<text xml:space="preserve" text-anchor="middle" x="1635.88" y="-112.35" font-family="Helvetica,sans-Serif" font-size="12.00">Capability metadata</text>
<text xml:space="preserve" text-anchor="middle" x="1635.88" y="-99.6" font-family="Helvetica,sans-Serif" font-size="12.00">fields/operators/indexes</text>
</g>
<!-- capabilities&#45;&gt;search_manifest -->
<g id="edge18" class="edge">
<title>capabilities&#45;&gt;search_manifest</title>
<path fill="none" stroke="#444444" d="M1698.57,-92.57C1713.47,-88.12 1729.52,-83.32 1744.87,-78.74"/>
<polygon fill="#444444" stroke="#444444" points="1745.87,-82.09 1754.45,-75.87 1743.86,-75.38 1745.87,-82.09"/>
</g>
</g>
</svg>
